<?xml version="1.0" encoding="UTF-8"?>
<!DOCTYPE svg PUBLIC "-//W3C//DTD SVG 1.1//EN" "http://www.w3.org/Graphics/SVG/1.1/DTD/svg11.dtd">
<svg xmlns="http://www.w3.org/2000/svg" version="1.1" width="413px" height="605px" style="shape-rendering:geometricPrecision; text-rendering:geometricPrecision; image-rendering:optimizeQuality; fill-rule:evenodd; clip-rule:evenodd" xmlns:xlink="http://www.w3.org/1999/xlink">
<g><path style="opacity:0.953" fill="#f5b3c8" d="M 171.5,4.5 C 166.971,2.35101 162.305,2.01768 157.5,3.5C 158.898,1.46719 160.898,0.467193 163.5,0.5C 166.766,0.799727 169.433,2.13306 171.5,4.5 Z"/></g>
<g><path style="opacity:0.973" fill="#f4b6ca" d="M 195.5,7.5 C 192.357,3.76002 188.357,2.59335 183.5,4C 181.963,6.2796 180.797,8.7796 180,11.5C 178.89,13.0368 177.39,13.7035 175.5,13.5C 175.371,11.7839 175.038,10.1172 174.5,8.5C 175.458,8.9528 176.292,9.61947 177,10.5C 178.833,8 180.667,5.5 182.5,3C 188.48,0.0946694 192.813,1.59467 195.5,7.5 Z"/></g>
<g><path style="opacity:0.027" fill="#fccde2" d="M 247.5,4.5 C 250.167,5.16667 251.833,6.83333 252.5,9.5C 250.5,8.16667 248.833,6.5 247.5,4.5 Z"/></g>
<g><path style="opacity:1" fill="#f2b4c7" d="M 146.5,11.5 C 141.072,6.26876 134.739,4.26876 127.5,5.5C 127.611,4.88258 127.944,4.38258 128.5,4C 136.602,1.8939 142.602,4.3939 146.5,11.5 Z"/></g>
<g><path style="opacity:1" fill="#f77aa1" d="M 171.5,4.5 C 173.262,5.26231 174.262,6.59565 174.5,8.5C 175.038,10.1172 175.371,11.7839 175.5,13.5C 177.39,13.7035 178.89,13.0368 180,11.5C 180.797,8.7796 181.963,6.2796 183.5,4C 188.357,2.59335 192.357,3.76002 195.5,7.5C 198.286,18.0858 201.286,18.0858 204.5,7.5C 205.167,6.16667 206.167,5.16667 207.5,4.5C 212.443,1.78757 217.276,2.1209 222,5.5C 222.202,7.2556 222.702,8.92226 223.5,10.5C 224.667,12.0792 226,13.4125 227.5,14.5C 227.5,14.8333 227.5,15.1667 227.5,15.5C 227.775,17.8418 228.608,17.8418 230,15.5C 232.65,6.67198 238.483,3.00532 247.5,4.5C 248.833,6.5 250.5,8.16667 252.5,9.5C 253.24,13.641 254.24,17.641 255.5,21.5C 246.833,21.5 238.167,21.5 229.5,21.5C 228.833,21.5 228.167,21.5 227.5,21.5C 213.167,21.5 198.833,21.5 184.5,21.5C 183.833,21.5 183.167,21.5 182.5,21.5C 168.167,21.5 153.833,21.5 139.5,21.5C 139.167,21.5 138.833,21.5 138.5,21.5C 138.167,21.5 137.833,21.5 137.5,21.5C 137.167,21.5 136.833,21.5 136.5,21.5C 119.807,21.5013 103.14,22.168 86.5,23.5C 84.8333,23.1667 83.1667,22.8333 81.5,22.5C 82.9459,20.3821 83.6126,18.0488 83.5,15.5C 83.5,14.8333 83.8333,14.5 84.5,14.5C 87.6738,12.4394 91.0071,12.1061 94.5,13.5C 94.8333,13.5 95.1667,13.5 95.5,13.5C 95.7531,16.9557 97.4198,18.7891 100.5,19C 102.407,15.1095 104.407,11.2762 106.5,7.5C 111.639,7.30652 114.806,9.63985 116,14.5C 117,15.1667 118,15.8333 119,16.5C 120.011,15.6634 121.178,15.33 122.5,15.5C 122.34,13.8008 122.506,12.1341 123,10.5C 124.376,9.29493 125.542,7.9616 126.5,6.5C 126.5,5.83333 126.833,5.5 127.5,5.5C 134.739,4.26876 141.072,6.26876 146.5,11.5C 146.343,12.8734 146.51,14.2068 147,15.5C 148.268,15.6158 149.602,15.9491 151,16.5C 151.586,11.3275 153.753,6.99417 157.5,3.5C 162.305,2.01768 166.971,2.35101 171.5,4.5 Z"/></g>
<g><path style="opacity:1" fill="#f97ba0" d="M 280.5,15.5 C 280.261,17.4672 280.594,19.3005 281.5,21C 279.323,22.2022 276.989,22.7022 274.5,22.5C 269.317,22.3229 263.984,22.3229 258.5,22.5C 258.5,19.8333 258.5,17.1667 258.5,14.5C 258.5,14.1667 258.5,13.8333 258.5,13.5C 261.297,11.205 263.964,8.70497 266.5,6C 274.509,4.1682 279.175,7.33486 280.5,15.5 Z"/></g>
<g><path style="opacity:0.82" fill="#f8bacf" d="M 247.5,4.5 C 238.483,3.00532 232.65,6.67198 230,15.5C 228.608,17.8418 227.775,17.8418 227.5,15.5C 230.347,8.65171 235.347,4.31838 242.5,2.5C 244.557,2.4357 246.223,3.10237 247.5,4.5 Z"/></g>
<g><path style="opacity:1" fill="#f5aac1" d="M 227.5,14.5 C 226,13.4125 224.667,12.0792 223.5,10.5C 222.702,8.92226 222.202,7.2556 222,5.5C 217.276,2.1209 212.443,1.78757 207.5,4.5C 210.336,0.37548 214.002,-0.457853 218.5,2C 223.58,4.59237 226.58,8.75903 227.5,14.5 Z"/></g>
<g><path style="opacity:0.706" fill="#f8c3d3" d="M 324.5,12.5 C 323.5,11.8333 322.5,11.1667 321.5,10.5C 315.65,8.16985 310.983,9.50318 307.5,14.5C 306.5,15.1667 305.5,15.8333 304.5,16.5C 307.77,8.53138 313.436,6.03138 321.5,9C 323.426,9.42244 324.426,10.5891 324.5,12.5 Z"/></g>
<g><path style="opacity:0.925" fill="#f4b7c9" d="M 288.5,11.5 C 286.279,13.6932 284.946,16.3599 284.5,19.5C 283.761,19.631 283.094,19.4643 282.5,19C 281.915,17.6976 281.249,16.531 280.5,15.5C 279.175,7.33486 274.509,4.1682 266.5,6C 263.964,8.70497 261.297,11.205 258.5,13.5C 261.673,5.8197 267.34,2.65303 275.5,4C 279.052,7.60625 281.719,11.7729 283.5,16.5C 284.204,13.7954 285.871,12.1287 288.5,11.5 Z"/></g>
<g><path style="opacity:0.965" fill="#f0b1c5" d="M 298.5,12.5 C 295.214,11.7929 291.881,11.4595 288.5,11.5C 292.114,8.68717 295.448,9.0205 298.5,12.5 Z"/></g>
<g><path style="opacity:1" fill="#f9789e" d="M 321.5,10.5 C 323.551,13.5519 325.051,16.8852 326,20.5C 326.667,22.1667 326.667,23.8333 326,25.5C 319.915,24.6883 313.748,24.1883 307.5,24C 306.106,23.044 305.439,21.7106 305.5,20C 305.954,18.0614 306.621,16.228 307.5,14.5C 310.983,9.50318 315.65,8.16985 321.5,10.5 Z"/></g>
<g><path style="opacity:0.496" fill="#f9c2d2" d="M 94.5,13.5 C 91.0071,12.1061 87.6738,12.4394 84.5,14.5C 85.3816,12.6162 86.8816,11.2829 89,10.5C 91.2092,10.9892 93.0425,11.9892 94.5,13.5 Z"/></g>
<g><path style="opacity:1" fill="#f8a4be" d="M 157.5,3.5 C 153.753,6.99417 151.586,11.3275 151,16.5C 149.602,15.9491 148.268,15.6158 147,15.5C 146.51,14.2068 146.343,12.8734 146.5,11.5C 147.268,12.2625 147.768,13.2625 148,14.5C 149.667,11.8333 151.333,9.16667 153,6.5C 154.129,4.85883 155.629,3.85883 157.5,3.5 Z"/></g>
<g><path style="opacity:0.839" fill="#f6b8cc" d="M 195.5,7.5 C 197.309,9.09909 198.642,11.0991 199.5,13.5C 200.709,11.0592 202.376,9.05924 204.5,7.5C 201.286,18.0858 198.286,18.0858 195.5,7.5 Z"/></g>
<g><path style="opacity:1" fill="#f6b3c8" d="M 106.5,7.5 C 109.107,6.1976 111.773,6.36427 114.5,8C 116.123,10.0795 117.623,12.2462 119,14.5C 120.385,10.6875 122.885,8.0208 126.5,6.5C 125.542,7.9616 124.376,9.29493 123,10.5C 122.506,12.1341 122.34,13.8008 122.5,15.5C 121.178,15.33 120.011,15.6634 119,16.5C 118,15.8333 117,15.1667 116,14.5C 114.806,9.63985 111.639,7.30652 106.5,7.5 Z"/></g>
<g><path style="opacity:1" fill="#f87aa0" d="M 288.5,11.5 C 291.881,11.4595 295.214,11.7929 298.5,12.5C 300.123,15.2153 300.79,18.2153 300.5,21.5C 297.116,21.6604 293.783,21.327 290.5,20.5C 288.666,21.7545 286.666,22.4211 284.5,22.5C 284.5,21.5 284.5,20.5 284.5,19.5C 284.946,16.3599 286.279,13.6932 288.5,11.5 Z"/></g>
<g><path style="opacity:1" fill="#f0a1b8" d="M 106.5,7.5 C 104.407,11.2762 102.407,15.1095 100.5,19C 97.4198,18.7891 95.7531,16.9557 95.5,13.5C 96.8846,14.5736 98.0513,15.9069 99,17.5C 100.238,13.1111 102.738,9.77778 106.5,7.5 Z"/></g>
<g><path style="opacity:1" fill="#fbc7d6" d="M 139.5,22.5 C 139.5,22.1667 139.5,21.8333 139.5,21.5C 153.833,21.5 168.167,21.5 182.5,21.5C 180.75,63.0837 180.083,104.75 180.5,146.5C 182.099,146.768 183.432,146.434 184.5,145.5C 185.497,126.341 185.83,107.007 185.5,87.5C 186.332,105.996 186.832,124.662 187,143.5C 187.065,117.136 187.732,90.8022 189,64.5C 189.403,81.5014 189.237,98.5014 188.5,115.5C 188.309,125.119 188.975,134.619 190.5,144C 188.817,145.286 187.151,146.453 185.5,147.5C 168.957,147.569 152.624,147.569 136.5,147.5C 137.822,147.67 138.989,147.337 140,146.5C 140.831,104.998 140.665,63.6646 139.5,22.5 Z"/></g>
<g><path style="opacity:1" fill="#f49fb7" d="M 252.5,9.5 C 254.451,11.48 255.951,13.8133 257,16.5C 257.278,15.5842 257.778,14.9175 258.5,14.5C 258.5,17.1667 258.5,19.8333 258.5,22.5C 263.984,22.3229 269.317,22.3229 274.5,22.5C 274.5,22.8333 274.5,23.1667 274.5,23.5C 273.5,23.5 272.5,23.5 271.5,23.5C 257.833,23.5 244.167,23.5 230.5,23.5C 230.167,22.8333 229.833,22.1667 229.5,21.5C 238.167,21.5 246.833,21.5 255.5,21.5C 254.24,17.641 253.24,13.641 252.5,9.5 Z"/></g>
<g><path style="opacity:1" fill="#fbc6d6" d="M 83.5,15.5 C 83.6126,18.0488 82.9459,20.3821 81.5,22.5C 83.1667,22.8333 84.8333,23.1667 86.5,23.5C 103.14,22.168 119.807,21.5013 136.5,21.5C 136.5,21.8333 136.5,22.1667 136.5,22.5C 135.17,64.069 135.17,105.736 136.5,147.5C 114.784,147.225 93.1175,147.891 71.5,149.5C 71.5,123.833 71.5,98.1667 71.5,72.5C 71.3334,57.163 71.5001,41.8297 72,26.5C 73.6667,25.1667 75.3333,23.8333 77,22.5C 77.414,22.9574 77.914,23.2907 78.5,23.5C 80.1916,20.7692 81.8583,18.1025 83.5,15.5 Z"/></g>
<g><path style="opacity:1" fill="#fbc6d6" d="M 184.5,21.5 C 198.833,21.5 213.167,21.5 227.5,21.5C 225.496,63.4903 225.163,105.49 226.5,147.5C 226.167,147.5 225.833,147.5 225.5,147.5C 212.217,147.274 198.884,147.274 185.5,147.5C 187.151,146.453 188.817,145.286 190.5,144C 188.975,134.619 188.309,125.119 188.5,115.5C 189.237,98.5014 189.403,81.5014 189,64.5C 187.732,90.8022 187.065,117.136 187,143.5C 186.832,124.662 186.332,105.996 185.5,87.5C 185.822,65.4247 185.489,43.4247 184.5,21.5 Z"/></g>
<g><path style="opacity:1" fill="#f389a8" d="M 321.5,10.5 C 322.5,11.1667 323.5,11.8333 324.5,12.5C 326.472,15.0836 327.472,18.0836 327.5,21.5C 327.5,23.5 327.5,25.5 327.5,27.5C 325.139,27.3259 322.806,26.9926 320.5,26.5C 320.167,26.5 319.833,26.5 319.5,26.5C 318.791,25.596 317.791,25.2627 316.5,25.5C 302.82,25.0679 289.154,24.4012 275.5,23.5C 275.167,23.5 274.833,23.5 274.5,23.5C 274.5,23.1667 274.5,22.8333 274.5,22.5C 276.989,22.7022 279.323,22.2022 281.5,21C 280.594,19.3005 280.261,17.4672 280.5,15.5C 281.249,16.531 281.915,17.6976 282.5,19C 283.094,19.4643 283.761,19.631 284.5,19.5C 284.5,20.5 284.5,21.5 284.5,22.5C 286.666,22.4211 288.666,21.7545 290.5,20.5C 293.783,21.327 297.116,21.6604 300.5,21.5C 300.79,18.2153 300.123,15.2153 298.5,12.5C 300.451,13.7158 301.951,15.3825 303,17.5C 303.383,16.944 303.883,16.6107 304.5,16.5C 305.5,15.8333 306.5,15.1667 307.5,14.5C 306.621,16.228 305.954,18.0614 305.5,20C 305.439,21.7106 306.106,23.044 307.5,24C 313.748,24.1883 319.915,24.6883 326,25.5C 326.667,23.8333 326.667,22.1667 326,20.5C 325.051,16.8852 323.551,13.5519 321.5,10.5 Z"/></g>
<g><path style="opacity:1" fill="#fbc7d6" d="M 230.5,23.5 C 244.167,23.5 257.833,23.5 271.5,23.5C 271.5,65.1667 271.5,106.833 271.5,148.5C 255.979,147.766 240.646,147.433 225.5,147.5C 225.833,147.5 226.167,147.5 226.5,147.5C 227.833,147.5 229.167,147.5 230.5,147.5C 230.5,106.167 230.5,64.8333 230.5,23.5 Z"/></g>
<g><path style="opacity:1" fill="#fbc7d6" d="M 275.5,23.5 C 289.154,24.4012 302.82,25.0679 316.5,25.5C 316.168,66.6701 316.501,107.67 317.5,148.5C 317.842,149.338 318.508,149.672 319.5,149.5C 324.049,149.163 325.215,147.163 323,143.5C 322.147,130.462 322.48,117.462 324,104.5C 327.472,102.521 330.638,100.188 333.5,97.5C 334.57,100.876 335.736,104.21 337,107.5C 337.807,121.366 337.641,135.199 336.5,149C 336.836,150.03 337.503,150.53 338.5,150.5C 338.5,150.833 338.5,151.167 338.5,151.5C 317.644,150.067 296.644,149.067 275.5,148.5C 275.5,106.833 275.5,65.1667 275.5,23.5 Z"/></g>
<g><path style="opacity:0.427" fill="#fbdbe4" d="M 182.5,21.5 C 183.167,21.5 183.833,21.5 184.5,21.5C 185.489,43.4247 185.822,65.4247 185.5,87.5C 185.83,107.007 185.497,126.341 184.5,145.5C 183.432,146.434 182.099,146.768 180.5,146.5C 180.083,104.75 180.75,63.0837 182.5,21.5 Z"/></g>
<g><path style="opacity:1" fill="#fcc5d6" d="M 327.5,21.5 C 328.434,22.5676 328.768,23.901 328.5,25.5C 328.5,26.5 328.5,27.5 328.5,28.5C 330.799,29.1379 332.966,30.1379 335,31.5C 335.82,47.7639 335.32,63.9306 333.5,80C 334.973,80.7096 335.64,81.8762 335.5,83.5C 331.671,84.6506 328.671,86.984 326.5,90.5C 325.5,89.1667 324.5,89.1667 323.5,90.5C 322.585,89.6721 321.919,88.6721 321.5,87.5C 322.788,66.8818 322.455,46.5485 320.5,26.5C 322.806,26.9926 325.139,27.3259 327.5,27.5C 327.5,25.5 327.5,23.5 327.5,21.5 Z"/></g>
<g><path style="opacity:0.633" fill="#f9dae4" d="M 316.5,25.5 C 317.791,25.2627 318.791,25.596 319.5,26.5C 318.414,26.62 317.747,27.2867 317.5,28.5C 317.52,68.3407 317.52,108.341 317.5,148.5C 316.501,107.67 316.168,66.6701 316.5,25.5 Z"/></g>
<g><path style="opacity:0.024" fill="#fffcfd" d="M 71.5,72.5 C 71.5,98.1667 71.5,123.833 71.5,149.5C 67.1667,149.5 62.8333,149.5 58.5,149.5C 62.2984,148.517 66.2984,148.183 70.5,148.5C 70.1689,122.995 70.5023,97.6612 71.5,72.5 Z"/></g>
<g><path style="opacity:0.11" fill="#feeef1" d="M 184.5,145.5 C 183.5,145.5 182.5,145.5 181.5,145.5C 181.122,113.148 181.622,80.8148 183,48.5C 184.387,80.8139 184.887,113.147 184.5,145.5 Z"/></g>
<g><path style="opacity:0.536" fill="#fcdfe7" d="M 271.5,23.5 C 272.5,23.5 273.5,23.5 274.5,23.5C 274.833,23.5 275.167,23.5 275.5,23.5C 275.5,65.1667 275.5,106.833 275.5,148.5C 274.167,148.5 272.833,148.5 271.5,148.5C 271.5,106.833 271.5,65.1667 271.5,23.5 Z"/></g>
<g><path style="opacity:0.08" fill="#fff2f4" d="M 272.5,25.5 C 273.833,45.4889 274.5,65.8222 274.5,86.5C 274.167,106.833 273.833,127.167 273.5,147.5C 272.5,106.839 272.167,66.1721 272.5,25.5 Z"/></g>
<g><path style="opacity:0.151" fill="#fef0f4" d="M 93.5,24.5 C 93.5,65.5 93.5,106.5 93.5,147.5C 92.167,127.344 91.5003,106.844 91.5,86C 91.5003,65.1556 92.167,44.6556 93.5,24.5 Z"/></g>
<g><path style="opacity:1" fill="#f8cfdb" d="M 328.5,25.5 C 331.249,26.9048 334.083,28.2381 337,29.5C 337.985,37.1377 338.485,44.8044 338.5,52.5C 338.5,85.1667 338.5,117.833 338.5,150.5C 337.503,150.53 336.836,150.03 336.5,149C 337.641,135.199 337.807,121.366 337,107.5C 335.736,104.21 334.57,100.876 333.5,97.5C 330.638,100.188 327.472,102.521 324,104.5C 322.48,117.462 322.147,130.462 323,143.5C 325.215,147.163 324.049,149.163 319.5,149.5C 319.5,108.5 319.5,67.5 319.5,26.5C 319.833,26.5 320.167,26.5 320.5,26.5C 322.455,46.5485 322.788,66.8818 321.5,87.5C 321.919,88.6721 322.585,89.6721 323.5,90.5C 324.5,89.1667 325.5,89.1667 326.5,90.5C 328.671,86.984 331.671,84.6506 335.5,83.5C 335.64,81.8762 334.973,80.7096 333.5,80C 335.32,63.9306 335.82,47.7639 335,31.5C 332.966,30.1379 330.799,29.1379 328.5,28.5C 328.5,27.5 328.5,26.5 328.5,25.5 Z"/></g>
<g><path style="opacity:0.109" fill="#fff2f6" d="M 319.5,26.5 C 319.5,67.5 319.5,108.5 319.5,149.5C 318.508,149.672 317.842,149.338 317.5,148.5C 317.52,108.341 317.52,68.3407 317.5,28.5C 317.747,27.2867 318.414,26.62 319.5,26.5 Z"/></g>
<g><path style="opacity:0.898" fill="#f5d3dd" d="M 93.5,23.5 C 95.6934,24.1954 97.0267,25.6954 97.5,28C 95.6853,67.3866 94.852,106.887 95,146.5C 94.6174,147.056 94.1174,147.389 93.5,147.5C 93.5,106.5 93.5,65.5 93.5,24.5C 93.5,24.1667 93.5,23.8333 93.5,23.5 Z"/></g>
<g><path style="opacity:0.481" fill="#fbeaee" d="M 136.5,21.5 C 136.833,21.5 137.167,21.5 137.5,21.5C 137.833,24.1667 138.167,24.1667 138.5,21.5C 138.833,21.5 139.167,21.5 139.5,21.5C 139.5,21.8333 139.5,22.1667 139.5,22.5C 139.833,63.1721 139.5,103.839 138.5,144.5C 137.914,144.291 137.414,143.957 137,143.5C 136.5,103.168 136.333,62.8347 136.5,22.5C 136.5,22.1667 136.5,21.8333 136.5,21.5 Z"/></g>
<g><path style="opacity:0.864" fill="#fbd7e1" d="M 227.5,21.5 C 228.167,21.5 228.833,21.5 229.5,21.5C 229.833,22.1667 230.167,22.8333 230.5,23.5C 230.5,64.8333 230.5,106.167 230.5,147.5C 229.167,147.5 227.833,147.5 226.5,147.5C 225.163,105.49 225.496,63.4903 227.5,21.5 Z"/></g>
<g><path style="opacity:0.283" fill="#fcecf1" d="M 227.5,23.5 C 228.833,40.6537 229.5,58.1537 229.5,76C 229.622,95.8648 229.122,115.698 228,135.5C 227.904,98.1136 227.737,60.7803 227.5,23.5 Z"/></g>
<g><path style="opacity:0.187" fill="#fdebf1" d="M 338.5,52.5 C 339.167,85.0025 339.833,117.669 340.5,150.5C 347.031,151.473 353.364,152.806 359.5,154.5C 353.183,153.906 346.849,153.406 340.5,153C 339.584,152.722 338.918,152.222 338.5,151.5C 338.5,151.167 338.5,150.833 338.5,150.5C 338.5,117.833 338.5,85.1667 338.5,52.5 Z"/></g>
<g><path style="opacity:0.858" fill="#fad4de" d="M 136.5,22.5 C 136.333,62.8347 136.5,103.168 137,143.5C 137.414,143.957 137.914,144.291 138.5,144.5C 139.5,103.839 139.833,63.1721 139.5,22.5C 140.665,63.6646 140.831,104.998 140,146.5C 138.989,147.337 137.822,147.67 136.5,147.5C 135.17,105.736 135.17,64.069 136.5,22.5 Z"/></g>
<g><path style="opacity:1" fill="#fbadc3" d="M 225.5,147.5 C 240.646,147.433 255.979,147.766 271.5,148.5C 272.833,148.5 274.167,148.5 275.5,148.5C 296.644,149.067 317.644,150.067 338.5,151.5C 338.918,152.222 339.584,152.722 340.5,153C 346.849,153.406 353.183,153.906 359.5,154.5C 361.143,158.295 361.809,162.295 361.5,166.5C 350.181,165.778 338.848,165.445 327.5,165.5C 314.16,165.389 300.827,165.055 287.5,164.5C 277.008,163.67 266.341,163.17 255.5,163C 186.501,162.5 117.501,162.333 48.5,162.5C 48.5,159.167 48.5,155.833 48.5,152.5C 52.2856,152.68 55.619,151.68 58.5,149.5C 62.8333,149.5 67.1667,149.5 71.5,149.5C 93.1175,147.891 114.784,147.225 136.5,147.5C 152.624,147.569 168.957,147.569 185.5,147.5C 198.884,147.274 212.217,147.274 225.5,147.5 Z"/></g>
<g><path style="opacity:0.779" fill="#f8c4d1" d="M 58.5,149.5 C 55.619,151.68 52.2856,152.68 48.5,152.5C 48.5,155.833 48.5,159.167 48.5,162.5C 117.501,162.333 186.501,162.5 255.5,163C 266.341,163.17 277.008,163.67 287.5,164.5C 207.503,163.65 127.503,163.316 47.5,163.5C 44.1177,153.325 47.7844,148.659 58.5,149.5 Z"/></g>
<g><path style="opacity:0.864" fill="#f7bece" d="M 46.5,165.5 C 47.1667,165.5 47.8333,165.5 48.5,165.5C 48.8333,165.5 49.1667,165.5 49.5,165.5C 55.8333,165.5 62.1667,165.5 68.5,165.5C 75.5,165.5 82.5,165.5 89.5,165.5C 160.849,165.031 232.182,165.698 303.5,167.5C 303.5,167.833 303.5,168.167 303.5,168.5C 239.517,166.976 175.517,166.31 111.5,166.5C 90.1667,166.5 68.8333,166.5 47.5,166.5C 47.5,173.5 47.5,180.5 47.5,187.5C 74.1667,187.5 100.833,187.5 127.5,187.5C 127.5,187.833 127.5,188.167 127.5,188.5C 100.5,188.5 73.5,188.5 46.5,188.5C 46.5,180.833 46.5,173.167 46.5,165.5 Z"/></g>
<g><path style="opacity:0.101" fill="#ffebf1" d="M 47.5,163.5 C 127.503,163.316 207.503,163.65 287.5,164.5C 300.827,165.055 314.16,165.389 327.5,165.5C 330.305,166.319 333.305,166.819 336.5,167C 325.505,167.5 314.505,167.667 303.5,167.5C 232.182,165.698 160.849,165.031 89.5,165.5C 82.5,164.167 75.5,164.167 68.5,165.5C 62.1667,165.5 55.8333,165.5 49.5,165.5C 49.1667,164.167 48.8333,164.167 48.5,165.5C 47.8333,165.5 47.1667,165.5 46.5,165.5C 46.8333,164.833 47.1667,164.167 47.5,163.5 Z"/></g>
<g><path style="opacity:1" fill="#fbacc3" d="M 111.5,166.5 C 175.517,166.31 239.517,166.976 303.5,168.5C 322.866,168.376 342.199,169.043 361.5,170.5C 362.386,177.457 362.72,184.457 362.5,191.5C 357.5,191.5 352.5,191.5 347.5,191.5C 327.497,190.894 307.497,190.227 287.5,189.5C 287.5,189.167 287.5,188.833 287.5,188.5C 284.023,187.677 280.356,187.177 276.5,187C 200.501,186.5 124.501,186.333 48.5,186.5C 48.5,182.167 48.5,177.833 48.5,173.5C 131.167,172.833 131.167,172.167 48.5,171.5C 48.5,170.167 48.5,168.833 48.5,167.5C 69.6733,167.831 90.6733,167.497 111.5,166.5 Z"/></g>
<g><path style="opacity:0.1" fill="#fcdae5" d="M 359.5,154.5 C 360.75,154.577 361.583,155.244 362,156.5C 362.629,159.311 363.129,162.144 363.5,165C 363.325,166.658 362.658,167.991 361.5,169C 363.441,175.885 364.108,183.052 363.5,190.5C 361.257,191.812 358.59,192.478 355.5,192.5C 352.645,192.497 349.978,192.164 347.5,191.5C 352.5,191.5 357.5,191.5 362.5,191.5C 362.72,184.457 362.386,177.457 361.5,170.5C 342.199,169.043 322.866,168.376 303.5,168.5C 303.5,168.167 303.5,167.833 303.5,167.5C 314.505,167.667 325.505,167.5 336.5,167C 333.305,166.819 330.305,166.319 327.5,165.5C 338.848,165.445 350.181,165.778 361.5,166.5C 361.809,162.295 361.143,158.295 359.5,154.5 Z"/></g>
<g><path style="opacity:1" fill="#f5afc4" d="M 111.5,166.5 C 90.6733,167.497 69.6733,167.831 48.5,167.5C 48.5,168.833 48.5,170.167 48.5,171.5C 131.167,172.167 131.167,172.833 48.5,173.5C 48.5,177.833 48.5,182.167 48.5,186.5C 124.501,186.333 200.501,186.5 276.5,187C 280.356,187.177 284.023,187.677 287.5,188.5C 234.168,187.944 180.835,187.611 127.5,187.5C 100.833,187.5 74.1667,187.5 47.5,187.5C 47.5,180.5 47.5,173.5 47.5,166.5C 68.8333,166.5 90.1667,166.5 111.5,166.5 Z"/></g>
<g><path style="opacity:0.471" fill="#f9d0db" d="M 127.5,188.5 C 127.5,188.167 127.5,187.833 127.5,187.5C 180.835,187.611 234.168,187.944 287.5,188.5C 287.5,188.833 287.5,189.167 287.5,189.5C 271.5,189.5 255.5,189.5 239.5,189.5C 230.167,189.5 220.833,189.5 211.5,189.5C 183.525,188.534 155.525,188.2 127.5,188.5 Z"/></g>
<g><path style="opacity:0.096" fill="#ffebf3" d="M 46.5,165.5 C 46.5,173.167 46.5,180.833 46.5,188.5C 73.5,188.5 100.5,188.5 127.5,188.5C 155.525,188.2 183.525,188.534 211.5,189.5C 211.5,189.833 211.5,190.167 211.5,190.5C 180.167,190.5 148.833,190.5 117.5,190.5C 93.6725,189.502 69.6725,189.169 45.5,189.5C 45.1743,181.316 45.5076,173.316 46.5,165.5 Z"/></g>
<g><path style="opacity:1" fill="#f7b0c4" d="M 287.5,192.5 C 292.5,193.167 297.5,193.833 302.5,194.5C 260.55,194.243 224.383,193.91 194,193.5C 175.893,194.213 157.726,194.88 139.5,195.5C 122.455,194.431 107.288,193.764 94,193.5C 89.3043,194.837 84.6377,196.17 80,197.5C 79.3333,196.167 78.6667,194.833 78,193.5C 73.0149,194.195 67.8482,194.195 62.5,193.5C 57.9205,194.816 53.2539,195.483 48.5,195.5C 48.5,200.833 48.5,206.167 48.5,211.5C 74.8354,211.667 101.169,211.5 127.5,211C 130.139,209.882 132.973,209.382 136,209.5C 140.202,209.949 144.369,210.616 148.5,211.5C 183.823,210.366 219.156,210.2 254.5,211C 255.056,211.383 255.389,211.883 255.5,212.5C 228.833,212.5 202.167,212.5 175.5,212.5C 132.833,212.5 90.1667,212.5 47.5,212.5C 47.5,205.833 47.5,199.167 47.5,192.5C 127.5,192.5 207.5,192.5 287.5,192.5 Z"/></g>
<g><path style="opacity:1" fill="#fdacc3" d="M 302.5,194.5 C 322.459,196.166 342.459,196.832 362.5,196.5C 362.5,203.167 362.5,209.833 362.5,216.5C 359.15,216.665 355.817,216.498 352.5,216C 353.711,215.107 353.711,214.274 352.5,213.5C 351.051,214.617 349.384,215.284 347.5,215.5C 316.835,214.379 286.168,213.379 255.5,212.5C 255.389,211.883 255.056,211.383 254.5,211C 219.156,210.2 183.823,210.366 148.5,211.5C 144.369,210.616 140.202,209.949 136,209.5C 132.973,209.382 130.139,209.882 127.5,211C 101.169,211.5 74.8354,211.667 48.5,211.5C 48.5,206.167 48.5,200.833 48.5,195.5C 53.2539,195.483 57.9205,194.816 62.5,193.5C 67.8482,194.195 73.0149,194.195 78,193.5C 78.6667,194.833 79.3333,196.167 80,197.5C 84.6377,196.17 89.3043,194.837 94,193.5C 107.288,193.764 122.455,194.431 139.5,195.5C 157.726,194.88 175.893,194.213 194,193.5C 224.383,193.91 260.55,194.243 302.5,194.5 Z"/></g>
<g><path style="opacity:0.729" fill="#f7c2d1" d="M 45.5,192.5 C 45.5,191.833 45.8333,191.5 46.5,191.5C 127.002,191.167 207.335,191.501 287.5,192.5C 207.5,192.5 127.5,192.5 47.5,192.5C 47.5,199.167 47.5,205.833 47.5,212.5C 90.1667,212.5 132.833,212.5 175.5,212.5C 175.5,212.833 175.5,213.167 175.5,213.5C 132.5,213.5 89.5,213.5 46.5,213.5C 46.8245,206.313 46.4912,199.313 45.5,192.5 Z"/></g>
<g><path style="opacity:0.022" fill="#fffbfb" d="M 287.5,215.5 C 299.197,215.254 310.864,215.587 322.5,216.5C 322.918,217.222 323.584,217.722 324.5,218C 319.56,217.674 314.56,217.508 309.5,217.5C 309.167,216.167 308.833,216.167 308.5,217.5C 299.971,217.269 291.638,217.269 283.5,217.5C 279.833,217.5 276.167,217.5 272.5,217.5C 268.688,216.676 264.688,216.176 260.5,216C 269.494,215.5 278.494,215.334 287.5,215.5 Z"/></g>
<g><path style="opacity:0.882" fill="#f7c2d2" d="M 272.5,217.5 C 276.167,217.5 279.833,217.5 283.5,217.5C 285.099,217.232 286.432,217.566 287.5,218.5C 226.838,217.642 166.171,217.309 105.5,217.5C 86.1667,217.5 66.8333,217.5 47.5,217.5C 122.338,214.914 197.338,214.914 272.5,217.5 Z"/></g>
<g><path style="opacity:0.888" fill="#f3b7c8" d="M 287.5,192.5 C 312.864,193.021 338.198,194.021 363.5,195.5C 363.5,202.833 363.5,210.167 363.5,217.5C 349.846,216.776 336.179,216.443 322.5,216.5C 310.864,215.587 299.197,215.254 287.5,215.5C 282.349,214.673 277.016,214.173 271.5,214C 239.502,213.5 207.502,213.333 175.5,213.5C 175.5,213.167 175.5,212.833 175.5,212.5C 202.167,212.5 228.833,212.5 255.5,212.5C 286.168,213.379 316.835,214.379 347.5,215.5C 349.384,215.284 351.051,214.617 352.5,213.5C 353.711,214.274 353.711,215.107 352.5,216C 355.817,216.498 359.15,216.665 362.5,216.5C 362.5,209.833 362.5,203.167 362.5,196.5C 342.459,196.832 322.459,196.166 302.5,194.5C 297.5,193.833 292.5,193.167 287.5,192.5 Z"/></g>
<g><path style="opacity:1" fill="#fcacc3" d="M 105.5,217.5 C 166.171,217.309 226.838,217.642 287.5,218.5C 312.85,218.723 338.183,219.389 363.5,220.5C 363.5,227.833 363.5,235.167 363.5,242.5C 346.868,241.117 330.201,240.45 313.5,240.5C 313.167,240.5 312.833,240.5 312.5,240.5C 304.658,239.983 296.825,238.649 289,236.5C 282.473,237.293 275.64,237.126 268.5,236C 268.043,235.586 267.709,235.086 267.5,234.5C 276.003,226.463 274.337,223.963 262.5,227C 260.667,229.5 258.5,231.667 256,233.5C 255.51,234.793 255.343,236.127 255.5,237.5C 250.93,237.322 246.43,236.655 242,235.5C 177.443,236.452 112.943,236.786 48.5,236.5C 48.5,230.5 48.5,224.5 48.5,218.5C 67.674,218.83 86.674,218.497 105.5,217.5 Z"/></g>
<g><path style="opacity:0.973" fill="#f5b4c7" d="M 47.5,217.5 C 66.8333,217.5 86.1667,217.5 105.5,217.5C 86.674,218.497 67.674,218.83 48.5,218.5C 48.5,224.5 48.5,230.5 48.5,236.5C 112.943,236.786 177.443,236.452 242,235.5C 246.43,236.655 250.93,237.322 255.5,237.5C 255.343,236.127 255.51,234.793 256,233.5C 258.5,231.667 260.667,229.5 262.5,227C 274.337,223.963 276.003,226.463 267.5,234.5C 267.709,235.086 268.043,235.586 268.5,236C 275.64,237.126 282.473,237.293 289,236.5C 296.825,238.649 304.658,239.983 312.5,240.5C 266.843,239.211 221.177,238.545 175.5,238.5C 133,237.59 90.333,237.59 47.5,238.5C 47.5,231.5 47.5,224.5 47.5,217.5 Z"/></g>
<g><path style="opacity:0.259" fill="#fbd5e1" d="M 47.5,217.5 C 47.5,224.5 47.5,231.5 47.5,238.5C 90.333,237.59 133,237.59 175.5,238.5C 132.498,238.617 89.4979,238.95 46.5,239.5C 46.175,231.981 46.5084,224.648 47.5,217.5 Z"/></g>
<g><path style="opacity:0.786" fill="#f4bece" d="M 317.5,243.5 C 332.796,244.887 348.13,245.554 363.5,245.5C 363.5,253.167 363.5,260.833 363.5,268.5C 352.617,268.856 341.951,268.19 331.5,266.5C 341.833,266.5 352.167,266.5 362.5,266.5C 362.5,259.833 362.5,253.167 362.5,246.5C 347.615,246.34 332.781,246.34 318,246.5C 312.898,245.3 307.731,244.466 302.5,244C 283.836,243.5 265.17,243.333 246.5,243.5C 201.67,242.501 156.67,242.168 111.5,242.5C 90.1667,242.5 68.8333,242.5 47.5,242.5C 47.5,246.833 47.5,251.167 47.5,255.5C 46.5139,251.03 46.1805,246.363 46.5,241.5C 127.501,241.333 208.501,241.5 289.5,242C 298.819,242.832 308.152,243.332 317.5,243.5 Z"/></g>
<g><path style="opacity:1" fill="#fcacc3" d="M 111.5,242.5 C 129.996,243.332 148.662,243.832 167.5,244C 171.361,244.569 171.361,245.402 167.5,246.5C 167.717,252.772 170.717,254.772 176.5,252.5C 175.754,251.264 175.421,249.93 175.5,248.5C 178.271,248.579 180.937,248.079 183.5,247C 183.833,246 184.167,245 184.5,244C 205.118,243.895 225.784,243.729 246.5,243.5C 265.17,243.333 283.836,243.5 302.5,244C 307.731,244.466 312.898,245.3 318,246.5C 332.781,246.34 347.615,246.34 362.5,246.5C 362.5,253.167 362.5,259.833 362.5,266.5C 352.167,266.5 341.833,266.5 331.5,266.5C 322.506,266.034 313.506,265.7 304.5,265.5C 293.677,264.38 282.677,263.547 271.5,263C 207.332,262.168 143.332,262.335 79.5,263.5C 68.8333,263.5 58.1667,263.5 47.5,263.5C 47.5,260.833 47.5,258.167 47.5,255.5C 47.5,251.167 47.5,246.833 47.5,242.5C 68.8333,242.5 90.1667,242.5 111.5,242.5 Z"/></g>
<g><path style="opacity:1" fill="#fab6ca" d="M 111.5,242.5 C 156.67,242.168 201.67,242.501 246.5,243.5C 225.784,243.729 205.118,243.895 184.5,244C 184.167,245 183.833,246 183.5,247C 180.937,248.079 178.271,248.579 175.5,248.5C 175.421,249.93 175.754,251.264 176.5,252.5C 170.717,254.772 167.717,252.772 167.5,246.5C 171.361,245.402 171.361,244.569 167.5,244C 148.662,243.832 129.996,243.332 111.5,242.5 Z"/></g>
<g><path style="opacity:0.754" fill="#f6bdce" d="M 79.5,263.5 C 143.332,262.335 207.332,262.168 271.5,263C 282.677,263.547 293.677,264.38 304.5,265.5C 229.511,263.875 154.511,263.208 79.5,263.5 Z"/></g>
<g><path style="opacity:0.165" fill="#fee9f3" d="M 45.5,192.5 C 46.4912,199.313 46.8245,206.313 46.5,213.5C 89.5,213.5 132.5,213.5 175.5,213.5C 207.502,213.333 239.502,213.5 271.5,214C 277.016,214.173 282.349,214.673 287.5,215.5C 278.494,215.334 269.494,215.5 260.5,216C 264.688,216.176 268.688,216.676 272.5,217.5C 197.338,214.914 122.338,214.914 47.5,217.5C 46.5084,224.648 46.175,231.981 46.5,239.5C 89.4979,238.95 132.498,238.617 175.5,238.5C 221.177,238.545 266.843,239.211 312.5,240.5C 312.833,240.5 313.167,240.5 313.5,240.5C 315.219,241.022 316.552,242.022 317.5,243.5C 308.152,243.332 298.819,242.832 289.5,242C 208.501,241.5 127.501,241.333 46.5,241.5C 46.1805,246.363 46.5139,251.03 47.5,255.5C 47.5,258.167 47.5,260.833 47.5,263.5C 89.6647,264.333 131.998,264.833 174.5,265C 142.664,265.168 110.997,265.668 79.5,266.5C 70.8333,266.5 62.1667,266.5 53.5,266.5C 51.0521,265.527 48.3854,265.194 45.5,265.5C 45.5,241.167 45.5,216.833 45.5,192.5 Z"/></g>
<g><path style="opacity:0.171" fill="#fbdfe9" d="M 239.5,189.5 C 255.5,189.5 271.5,189.5 287.5,189.5C 307.497,190.227 327.497,190.894 347.5,191.5C 349.978,192.164 352.645,192.497 355.5,192.5C 358.59,192.478 361.257,191.812 363.5,190.5C 364.541,222.357 364.541,254.357 363.5,286.5C 363.5,281.167 363.5,275.833 363.5,270.5C 359.167,270.5 354.833,270.5 350.5,270.5C 260.365,267.088 170.031,265.755 79.5,266.5C 110.997,265.668 142.664,265.168 174.5,265C 131.998,264.833 89.6647,264.333 47.5,263.5C 58.1667,263.5 68.8333,263.5 79.5,263.5C 154.511,263.208 229.511,263.875 304.5,265.5C 313.506,265.7 322.506,266.034 331.5,266.5C 341.951,268.19 352.617,268.856 363.5,268.5C 363.5,260.833 363.5,253.167 363.5,245.5C 348.13,245.554 332.796,244.887 317.5,243.5C 316.552,242.022 315.219,241.022 313.5,240.5C 330.201,240.45 346.868,241.117 363.5,242.5C 363.5,235.167 363.5,227.833 363.5,220.5C 338.183,219.389 312.85,218.723 287.5,218.5C 286.432,217.566 285.099,217.232 283.5,217.5C 291.638,217.269 299.971,217.269 308.5,217.5C 308.833,217.5 309.167,217.5 309.5,217.5C 314.56,217.508 319.56,217.674 324.5,218C 323.584,217.722 322.918,217.222 322.5,216.5C 336.179,216.443 349.846,216.776 363.5,217.5C 363.5,210.167 363.5,202.833 363.5,195.5C 338.198,194.021 312.864,193.021 287.5,192.5C 207.335,191.501 127.002,191.167 46.5,191.5C 69.9941,190.502 93.6608,190.169 117.5,190.5C 148.833,190.5 180.167,190.5 211.5,190.5C 221.015,190.827 230.348,190.494 239.5,189.5 Z"/></g>
<g><path style="opacity:1" fill="#fbadc3" d="M 350.5,270.5 C 354.833,270.5 359.167,270.5 363.5,270.5C 363.5,275.833 363.5,281.167 363.5,286.5C 363.5,286.833 363.5,287.167 363.5,287.5C 362.596,288.209 362.263,289.209 362.5,290.5C 362.167,290.5 361.833,290.5 361.5,290.5C 347.843,289.846 334.176,289.513 320.5,289.5C 320.167,289.5 319.833,289.5 319.5,289.5C 319.158,288.662 318.492,288.328 317.5,288.5C 317.167,288.5 316.833,288.5 316.5,288.5C 302.821,288.557 289.154,288.224 275.5,287.5C 275.167,287.5 274.833,287.5 274.5,287.5C 260.368,287.402 246.035,287.402 231.5,287.5C 230.833,287.167 230.167,286.833 229.5,286.5C 215.056,286.44 200.389,286.44 185.5,286.5C 185.167,286.5 184.833,286.5 184.5,286.5C 183.833,286.5 183.167,286.5 182.5,286.5C 182.167,286.5 181.833,286.5 181.5,286.5C 167.451,286.799 153.451,286.465 139.5,285.5C 138.5,285.5 137.5,285.5 136.5,285.5C 122.297,285.808 108.13,285.475 94,284.5C 92.699,284.639 91.8656,285.305 91.5,286.5C 91.1667,286.5 90.8333,286.5 90.5,286.5C 77.1866,287.778 63.8533,287.778 50.5,286.5C 48.7006,280.659 48.0339,274.659 48.5,268.5C 63.4649,268.416 77.6316,268.749 91,269.5C 118.598,268.672 146.264,268.006 174,267.5C 232.862,268.163 291.695,269.163 350.5,270.5 Z"/></g>
<g><path style="opacity:1" fill="#f4b2c5" d="M 79.5,266.5 C 170.031,265.755 260.365,267.088 350.5,270.5C 291.695,269.163 232.862,268.163 174,267.5C 146.264,268.006 118.598,268.672 91,269.5C 77.6316,268.749 63.4649,268.416 48.5,268.5C 58.8333,267.833 69.1667,267.167 79.5,266.5 Z"/></g>
<g><path style="opacity:1" fill="#fbc7d7" d="M 136.5,285.5 C 136.5,334.5 136.5,383.5 136.5,432.5C 122.167,432.5 107.833,432.5 93.5,432.5C 94.162,383.489 93.4953,334.822 91.5,286.5C 91.8656,285.305 92.699,284.639 94,284.5C 108.13,285.475 122.297,285.808 136.5,285.5 Z"/></g>
<g><path style="opacity:1" fill="#fbc7d6" d="M 229.5,286.5 C 227.983,286.511 226.816,287.177 226,288.5C 225.169,323.669 225.336,358.669 226.5,393.5C 226.5,406.5 226.5,419.5 226.5,432.5C 212.833,432.5 199.167,432.5 185.5,432.5C 185.5,383.833 185.5,335.167 185.5,286.5C 200.389,286.44 215.056,286.44 229.5,286.5 Z"/></g>
<g><path style="opacity:1" fill="#fbc5d5" d="M 274.5,287.5 C 273.209,287.263 272.209,287.596 271.5,288.5C 270.501,335.997 270.168,383.664 270.5,431.5C 257.5,431.5 244.5,431.5 231.5,431.5C 231.5,383.5 231.5,335.5 231.5,287.5C 246.035,287.402 260.368,287.402 274.5,287.5 Z"/></g>
<g><path style="opacity:1" fill="#fcc5d6" d="M 47.5,266.5 C 49.5,266.5 51.5,266.5 53.5,266.5C 62.1667,266.5 70.8333,266.5 79.5,266.5C 69.1667,267.167 58.8333,267.833 48.5,268.5C 48.0339,274.659 48.7006,280.659 50.5,286.5C 63.8533,287.778 77.1866,287.778 90.5,286.5C 90.2172,287.289 89.7172,287.956 89,288.5C 89.3137,335.827 89.4804,383.161 89.5,430.5C 76.5299,431.423 63.5299,431.756 50.5,431.5C 50.6667,383.832 50.5,336.166 50,288.5C 49.6174,287.944 49.1174,287.611 48.5,287.5C 47.6591,280.535 47.3257,273.535 47.5,266.5 Z"/></g>
<g><path style="opacity:1" fill="#fbc7d7" d="M 139.5,285.5 C 153.451,286.465 167.451,286.799 181.5,286.5C 181.5,335.167 181.5,383.833 181.5,432.5C 167.5,432.5 153.5,432.5 139.5,432.5C 139.5,383.5 139.5,334.5 139.5,285.5 Z"/></g>
<g><path style="opacity:1" fill="#fcc5d6" d="M 275.5,288.5 C 275.5,288.167 275.5,287.833 275.5,287.5C 289.154,288.224 302.821,288.557 316.5,288.5C 316.025,336.165 315.692,383.832 315.5,431.5C 302.5,431.5 289.5,431.5 276.5,431.5C 276.832,383.664 276.499,335.997 275.5,288.5 Z"/></g>
<g><path style="opacity:1" fill="#fcc7d6" d="M 320.5,289.5 C 334.176,289.513 347.843,289.846 361.5,290.5C 360.229,337.192 359.895,383.859 360.5,430.5C 348.476,431.746 336.476,431.746 324.5,430.5C 323.828,387.796 323.161,345.129 322.5,302.5C 323.461,297.932 322.794,293.599 320.5,289.5 Z"/></g>
<g><path style="opacity:0.989" fill="#f6cfda" d="M 275.5,288.5 C 276.499,335.997 276.832,383.664 276.5,431.5C 289.5,431.5 302.5,431.5 315.5,431.5C 315.692,383.832 316.025,336.165 316.5,288.5C 316.833,288.5 317.167,288.5 317.5,288.5C 317.167,336.505 317.5,384.505 318.5,432.5C 319.5,384.838 319.833,337.171 319.5,289.5C 319.833,289.5 320.167,289.5 320.5,289.5C 322.794,293.599 323.461,297.932 322.5,302.5C 323.161,345.129 323.828,387.796 324.5,430.5C 336.476,431.746 348.476,431.746 360.5,430.5C 359.895,383.859 360.229,337.192 361.5,290.5C 361.833,290.5 362.167,290.5 362.5,290.5C 361.071,330.504 361.237,370.504 363,410.5C 364.248,401.575 364.915,392.575 365,383.5C 365.5,353.168 365.667,322.835 365.5,292.5C 367.167,292.5 368.833,292.5 370.5,292.5C 371.167,292.5 371.833,292.5 372.5,292.5C 372.5,292.833 372.5,293.167 372.5,293.5C 370.5,293.5 368.5,293.5 366.5,293.5C 366.333,339.501 366.5,385.501 367,431.5C 372.072,432.471 377.238,432.805 382.5,432.5C 383.167,432.5 383.5,432.833 383.5,433.5C 361.167,433.5 338.833,433.5 316.5,433.5C 303.01,432.504 289.344,432.171 275.5,432.5C 275.5,384.5 275.5,336.5 275.5,288.5 Z"/></g>
<g><path style="opacity:0.339" fill="#fbe5eb" d="M 226.5,432.5 C 226.5,419.5 226.5,406.5 226.5,393.5C 226.278,358.491 226.611,323.491 227.5,288.5C 228.5,288.5 229.5,288.5 230.5,288.5C 230.5,336.5 230.5,384.5 230.5,432.5C 229.167,432.5 227.833,432.5 226.5,432.5 Z"/></g>
<g><path style="opacity:0.077" fill="#fef0f4" d="M 47.5,266.5 C 47.3257,273.535 47.6591,280.535 48.5,287.5C 48.5,335.833 48.5,384.167 48.5,432.5C 47.8333,432.5 47.1667,432.5 46.5,432.5C 46.6419,384.796 46.6419,337.129 46.5,289.5C 42.1667,289.5 37.8333,289.5 33.5,289.5C 37.5986,288.643 41.7653,287.643 46,286.5C 46.1717,279.654 46.6717,272.987 47.5,266.5 Z"/></g>
<g><path style="opacity:0.997" fill="#f6d0db" d="M 33.5,289.5 C 37.8333,289.5 42.1667,289.5 46.5,289.5C 46.6419,337.129 46.6419,384.796 46.5,432.5C 41.5,432.5 36.5,432.5 31.5,432.5C 31.5,432.167 31.5,431.833 31.5,431.5C 35.7675,431.797 39.9341,431.464 44,430.5C 44.5,383.835 44.6667,337.168 44.5,290.5C 39.0116,290.248 33.6782,290.915 28.5,292.5C 28.2023,338.793 28.5356,385.126 29.5,431.5C 28.6733,426.349 28.1733,421.016 28,415.5C 26.9211,374.173 26.4211,332.84 26.5,291.5C 28.4385,289.837 30.7718,289.171 33.5,289.5 Z"/></g>
<g><path style="opacity:1" fill="#fcc7d7" d="M 31.5,431.5 C 30.8333,431.5 30.1667,431.5 29.5,431.5C 28.5356,385.126 28.2023,338.793 28.5,292.5C 33.6782,290.915 39.0116,290.248 44.5,290.5C 44.6667,337.168 44.5,383.835 44,430.5C 39.9341,431.464 35.7675,431.797 31.5,431.5 Z"/></g>
<g><path style="opacity:0.55" fill="#fadce5" d="M 181.5,286.5 C 181.833,286.5 182.167,286.5 182.5,286.5C 182.5,459.823 183.167,459.823 184.5,286.5C 184.833,286.5 185.167,286.5 185.5,286.5C 185.5,335.167 185.5,383.833 185.5,432.5C 184.167,432.5 182.833,432.5 181.5,432.5C 181.5,383.833 181.5,335.167 181.5,286.5 Z"/></g>
<g><path style="opacity:0.403" fill="#feeaf1" d="M 182.5,286.5 C 183.167,286.5 183.833,286.5 184.5,286.5C 183.167,459.823 182.5,459.823 182.5,286.5 Z"/></g>
<g><path style="opacity:0.354" fill="#fce9ee" d="M 136.5,285.5 C 137.5,285.5 138.5,285.5 139.5,285.5C 139.5,334.5 139.5,383.5 139.5,432.5C 138.5,432.5 137.5,432.5 136.5,432.5C 136.5,383.5 136.5,334.5 136.5,285.5 Z"/></g>
<g><path style="opacity:0.2" fill="#fbedf1" d="M 363.5,287.5 C 363.333,316.835 363.5,346.169 364,375.5C 364.5,347.502 364.667,319.502 364.5,291.5C 366.735,291.205 368.735,291.539 370.5,292.5C 368.833,292.5 367.167,292.5 365.5,292.5C 365.667,322.835 365.5,353.168 365,383.5C 364.915,392.575 364.248,401.575 363,410.5C 361.237,370.504 361.071,330.504 362.5,290.5C 362.263,289.209 362.596,288.209 363.5,287.5 Z"/></g>
<g><path style="opacity:1" fill="#fbc6d6" d="M 372.5,293.5 C 378.52,292.762 381.687,295.429 382,301.5C 382.5,345.165 382.667,388.832 382.5,432.5C 377.238,432.805 372.072,432.471 367,431.5C 366.5,385.501 366.333,339.501 366.5,293.5C 368.5,293.5 370.5,293.5 372.5,293.5 Z"/></g>
<g><path style="opacity:0.969" fill="#f6d0dc" d="M 90.5,286.5 C 90.8333,286.5 91.1667,286.5 91.5,286.5C 91.5,335.167 91.5,383.833 91.5,432.5C 77.1667,432.5 62.8333,432.5 48.5,432.5C 48.5,384.167 48.5,335.833 48.5,287.5C 49.1174,287.611 49.6174,287.944 50,288.5C 50.5,336.166 50.6667,383.832 50.5,431.5C 63.5299,431.756 76.5299,431.423 89.5,430.5C 89.4804,383.161 89.3137,335.827 89,288.5C 89.7172,287.956 90.2172,287.289 90.5,286.5 Z"/></g>
<g><path style="opacity:0.72" fill="#fae4eb" d="M 372.5,293.5 C 372.5,293.167 372.5,292.833 372.5,292.5C 378.899,291.443 382.399,294.11 383,300.5C 384.48,343.835 384.813,387.168 384,430.5C 387.019,432.057 390.186,433.057 393.5,433.5C 390.167,433.5 386.833,433.5 383.5,433.5C 383.5,432.833 383.167,432.5 382.5,432.5C 382.667,388.832 382.5,345.165 382,301.5C 381.687,295.429 378.52,292.762 372.5,293.5 Z"/></g>
<g><path style="opacity:1" fill="#edc6d2" d="M 229.5,286.5 C 230.167,286.833 230.833,287.167 231.5,287.5C 231.5,335.5 231.5,383.5 231.5,431.5C 244.5,431.5 257.5,431.5 270.5,431.5C 270.168,383.664 270.501,335.997 271.5,288.5C 271.5,336.5 271.5,384.5 271.5,432.5C 272.833,432.5 274.167,432.5 275.5,432.5C 289.344,432.171 303.01,432.504 316.5,433.5C 252.5,433.5 188.5,433.5 124.5,433.5C 88.5,433.5 52.5,433.5 16.5,433.5C 19.6248,432.521 22.9581,432.187 26.5,432.5C 28.1667,432.5 29.8333,432.5 31.5,432.5C 36.5,432.5 41.5,432.5 46.5,432.5C 47.1667,432.5 47.8333,432.5 48.5,432.5C 62.8333,432.5 77.1667,432.5 91.5,432.5C 92.1667,432.5 92.8333,432.5 93.5,432.5C 107.833,432.5 122.167,432.5 136.5,432.5C 137.5,432.5 138.5,432.5 139.5,432.5C 153.5,432.5 167.5,432.5 181.5,432.5C 182.833,432.5 184.167,432.5 185.5,432.5C 199.167,432.5 212.833,432.5 226.5,432.5C 227.833,432.5 229.167,432.5 230.5,432.5C 230.5,384.5 230.5,336.5 230.5,288.5C 229.5,288.5 228.5,288.5 227.5,288.5C 226.611,323.491 226.278,358.491 226.5,393.5C 225.336,358.669 225.169,323.669 226,288.5C 226.816,287.177 227.983,286.511 229.5,286.5 Z"/></g>
<g><path style="opacity:0.093" fill="#fff0f3" d="M 91.5,286.5 C 93.4953,334.822 94.162,383.489 93.5,432.5C 92.8333,432.5 92.1667,432.5 91.5,432.5C 91.5,383.833 91.5,335.167 91.5,286.5 Z"/></g>
<g><path style="opacity:0.105" fill="#fff2f6" d="M 317.5,288.5 C 318.492,288.328 319.158,288.662 319.5,289.5C 319.833,337.171 319.5,384.838 318.5,432.5C 317.5,384.505 317.167,336.505 317.5,288.5 Z"/></g>
<g><path style="opacity:0.281" fill="#fdf0f3" d="M 26.5,291.5 C 26.4211,332.84 26.9211,374.173 28,415.5C 28.1733,421.016 28.6733,426.349 29.5,431.5C 30.1667,431.5 30.8333,431.5 31.5,431.5C 31.5,431.833 31.5,432.167 31.5,432.5C 29.8333,432.5 28.1667,432.5 26.5,432.5C 25.6423,385.333 25.6423,338.333 26.5,291.5 Z"/></g>
<g><path style="opacity:0.43" fill="#fbe8ee" d="M 274.5,287.5 C 274.833,287.5 275.167,287.5 275.5,287.5C 275.5,287.833 275.5,288.167 275.5,288.5C 275.5,336.5 275.5,384.5 275.5,432.5C 274.167,432.5 272.833,432.5 271.5,432.5C 271.5,384.5 271.5,336.5 271.5,288.5C 272.209,287.596 273.209,287.263 274.5,287.5 Z"/></g>
<g><path style="opacity:1" fill="#584c50" d="M 16.5,433.5 C 52.5,433.5 88.5,433.5 124.5,433.5C 124.5,433.833 124.5,434.167 124.5,434.5C 87.0939,434.173 49.7606,434.507 12.5,435.5C 13.1834,433.824 14.5168,433.157 16.5,433.5 Z"/></g>
<g><path style="opacity:1" fill="#46363b" d="M 124.5,434.5 C 124.5,434.167 124.5,433.833 124.5,433.5C 188.5,433.5 252.5,433.5 316.5,433.5C 338.833,433.5 361.167,433.5 383.5,433.5C 386.833,433.5 390.167,433.5 393.5,433.5C 394.791,433.263 395.791,433.596 396.5,434.5C 333.331,434.168 270.331,434.501 207.5,435.5C 194.167,435.5 180.833,435.5 167.5,435.5C 153.343,434.504 139.01,434.171 124.5,434.5 Z"/></g>
<g><path style="opacity:0.999" fill="#1a1617" d="M 124.5,434.5 C 139.01,434.171 153.343,434.504 167.5,435.5C 116.331,435.168 65.3306,435.501 14.5,436.5C 13.5655,437.568 13.2322,438.901 13.5,440.5C 12.5489,439.081 12.2155,437.415 12.5,435.5C 49.7606,434.507 87.0939,434.173 124.5,434.5 Z"/></g>
<g><path style="opacity:1" fill="#242424" d="M 207.5,435.5 C 270.331,434.501 333.331,434.168 396.5,434.5C 397.906,434.973 398.573,435.973 398.5,437.5C 398.5,441.5 398.5,445.5 398.5,449.5C 399.833,449.5 401.167,449.5 402.5,449.5C 404.017,449.511 405.184,450.177 406,451.5C 406.785,457.249 406.618,462.916 405.5,468.5C 404.13,471.619 403.13,474.952 402.5,478.5C 402.443,479.609 402.11,480.609 401.5,481.5C 400.542,481.953 399.708,482.619 399,483.5C 398.536,482.906 398.369,482.239 398.5,481.5C 400.655,479.383 401.655,476.716 401.5,473.5C 402.29,466.529 402.623,459.529 402.5,452.5C 376.672,451.502 350.672,451.169 324.5,451.5C 348.5,450.833 372.5,450.167 396.5,449.5C 396.5,446.5 396.5,443.5 396.5,440.5C 396.714,438.856 396.38,437.356 395.5,436C 332.834,435.5 270.168,435.333 207.5,435.5 Z"/></g>
<g><path style="opacity:0.69" fill="#818382" d="M 14.5,436.5 C 65.3306,435.501 116.331,435.168 167.5,435.5C 180.833,435.5 194.167,435.5 207.5,435.5C 270.168,435.333 332.834,435.5 395.5,436C 396.38,437.356 396.714,438.856 396.5,440.5C 396.167,440.5 395.833,440.5 395.5,440.5C 395.67,439.178 395.337,438.011 394.5,437C 267.834,436.5 141.167,436.333 14.5,436.5 Z"/></g>
<g><path style="opacity:0.273" fill="#c2c2c2" d="M 398.5,437.5 C 399.482,440.962 399.815,444.629 399.5,448.5C 400.791,448.263 401.791,448.596 402.5,449.5C 401.167,449.5 399.833,449.5 398.5,449.5C 398.5,445.5 398.5,441.5 398.5,437.5 Z"/></g>
<g><path style="opacity:0.384" fill="#bbbbbb" d="M 11.5,436.5 C 11.5,440.833 11.5,445.167 11.5,449.5C 9.83333,449.5 8.16667,449.5 6.5,449.5C 7.26133,448.609 8.26133,447.942 9.5,447.5C 10.1671,443.687 10.8337,440.021 11.5,436.5 Z"/></g>
<g><path style="opacity:0.303" fill="#cccccc" d="M 14.5,436.5 C 14.5,440.5 14.5,444.5 14.5,448.5C 141.344,447.347 268.01,447.181 394.5,448C 394.779,445.754 395.113,443.254 395.5,440.5C 395.833,440.5 396.167,440.5 396.5,440.5C 396.5,443.5 396.5,446.5 396.5,449.5C 268.833,449.5 141.167,449.5 13.5,449.5C 13.5,446.5 13.5,443.5 13.5,440.5C 13.2322,438.901 13.5655,437.568 14.5,436.5 Z"/></g>
<g><path style="opacity:0.968" fill="#242424" d="M 12.5,435.5 C 12.2155,437.415 12.5489,439.081 13.5,440.5C 13.5,443.5 13.5,446.5 13.5,449.5C 141.167,449.5 268.833,449.5 396.5,449.5C 372.5,450.167 348.5,450.833 324.5,451.5C 265.5,451.5 206.5,451.5 147.5,451.5C 100.67,450.501 53.6696,450.168 6.5,450.5C 6.5,450.167 6.5,449.833 6.5,449.5C 8.16667,449.5 9.83333,449.5 11.5,449.5C 11.5,445.167 11.5,440.833 11.5,436.5C 11.5,435.833 11.8333,435.5 12.5,435.5 Z"/></g>
<g><path style="opacity:1" fill="#141414" d="M 6.5,450.5 C 53.6696,450.168 100.67,450.501 147.5,451.5C 100.5,451.5 53.5,451.5 6.5,451.5C 6.5,457.5 6.5,463.5 6.5,469.5C 6.30678,473.449 5.80678,473.449 5,469.5C 4.33333,463.5 4.33333,457.5 5,451.5C 5.38258,450.944 5.88258,450.611 6.5,450.5 Z"/></g>
<g><path style="opacity:0.584" fill="#9a9a9a" d="M 6.5,449.5 C 6.5,449.833 6.5,450.167 6.5,450.5C 5.88258,450.611 5.38258,450.944 5,451.5C 4.33333,457.5 4.33333,463.5 5,469.5C 5.80678,473.449 6.30678,473.449 6.5,469.5C 6.83333,469.5 7.16667,469.5 7.5,469.5C 8.14952,471.435 8.48285,473.435 8.5,475.5C 7.77842,475.082 7.27842,474.416 7,473.5C 6.50999,474.793 6.34332,476.127 6.5,477.5C 2.96248,468.844 2.12914,459.844 4,450.5C 4.67076,449.748 5.5041,449.414 6.5,449.5 Z"/></g>
<g><path style="opacity:0.052" fill="#bcbcbc" d="M 147.5,451.5 C 206.5,451.5 265.5,451.5 324.5,451.5C 350.672,451.169 376.672,451.502 402.5,452.5C 270.833,452.5 139.167,452.5 7.5,452.5C 7.5,458.167 7.5,463.833 7.5,469.5C 7.16667,469.5 6.83333,469.5 6.5,469.5C 6.5,463.5 6.5,457.5 6.5,451.5C 53.5,451.5 100.5,451.5 147.5,451.5 Z"/></g>
<g><path style="opacity:0.09" fill="#b8b8b8" d="M 405.5,468.5 C 405.68,472.286 404.68,475.619 402.5,478.5C 403.13,474.952 404.13,471.619 405.5,468.5 Z"/></g>
<g><path style="opacity:0.855" fill="#797979" d="M 401.5,473.5 C 401.655,476.716 400.655,479.383 398.5,481.5C 398.98,478.557 399.98,475.89 401.5,473.5 Z"/></g>
<g><path style="opacity:0.988" fill="#4b4b4b" d="M 8.5,475.5 C 9.67373,476.514 10.3404,477.847 10.5,479.5C 10.7148,481.179 10.0481,482.179 8.5,482.5C 7.06873,481.22 6.40206,479.553 6.5,477.5C 6.34332,476.127 6.50999,474.793 7,473.5C 7.27842,474.416 7.77842,475.082 8.5,475.5 Z"/></g>
<g><path style="opacity:1" fill="#757575" d="M 10.5,479.5 C 11.4884,480.795 12.4884,482.128 13.5,483.5C 12.448,483.351 11.448,483.517 10.5,484C 11.7101,485.039 12.7101,486.206 13.5,487.5C 10.8333,486.833 9.16667,485.167 8.5,482.5C 10.0481,482.179 10.7148,481.179 10.5,479.5 Z"/></g>
<g><path style="opacity:0.906" fill="#6c6c6c" d="M 398.5,481.5 C 398.369,482.239 398.536,482.906 399,483.5C 399.708,482.619 400.542,481.953 401.5,481.5C 400.92,483.749 399.587,485.415 397.5,486.5C 397.5,485.167 396.833,484.5 395.5,484.5C 396.167,483.167 397.167,482.167 398.5,481.5 Z"/></g>
<g><path style="opacity:0.353" fill="#b8b8b8" d="M 395.5,484.5 C 392.829,486.118 389.829,486.785 386.5,486.5C 389.273,485.343 392.273,484.676 395.5,484.5 Z"/></g>
<g><path style="opacity:0.651" fill="#9b9b9b" d="M 17.5,485.5 C 22.3236,485.992 26.9903,486.659 31.5,487.5C 27.4862,487.666 23.4862,487.499 19.5,487C 18.5842,486.722 17.9175,486.222 17.5,485.5 Z"/></g>
<g><path style="opacity:0.995" fill="#2b2b2b" d="M 13.5,483.5 C 15.153,483.66 16.4863,484.326 17.5,485.5C 17.9175,486.222 18.5842,486.722 19.5,487C 23.4862,487.499 27.4862,487.666 31.5,487.5C 53.9618,489.603 76.6285,490.603 99.5,490.5C 93.021,491.491 86.3543,491.824 79.5,491.5C 65.1601,491.397 50.8267,491.064 36.5,490.5C 29.8028,490.452 23.1361,489.952 16.5,489C 15.2625,488.768 14.2625,488.268 13.5,487.5C 12.7101,486.206 11.7101,485.039 10.5,484C 11.448,483.517 12.448,483.351 13.5,483.5 Z"/></g>
<g><path style="opacity:0.514" fill="#ababab" d="M 31.5,487.5 C 64.6552,488.656 97.6552,489.656 130.5,490.5C 120.167,490.5 109.833,490.5 99.5,490.5C 76.6285,490.603 53.9618,489.603 31.5,487.5 Z"/></g>
<g><path style="opacity:0.645" fill="#a0a0a0" d="M 372.5,487.5 C 349.69,489.288 326.69,490.288 303.5,490.5C 292.167,490.5 280.833,490.5 269.5,490.5C 303.676,489.586 338.009,488.586 372.5,487.5 Z"/></g>
<g><path style="opacity:0.986" fill="#3b3b3b" d="M 395.5,484.5 C 396.833,484.5 397.5,485.167 397.5,486.5C 397.082,487.222 396.416,487.722 395.5,488C 382.283,490.524 368.949,491.691 355.5,491.5C 337.992,491.83 320.659,491.497 303.5,490.5C 326.69,490.288 349.69,489.288 372.5,487.5C 377.141,486.873 381.807,486.54 386.5,486.5C 389.829,486.785 392.829,486.118 395.5,484.5 Z"/></g>
<g><path style="opacity:0.912" fill="#444444" d="M 99.5,490.5 C 109.833,490.5 120.167,490.5 130.5,490.5C 133.5,490.5 136.5,490.5 139.5,490.5C 139.5,490.833 139.5,491.167 139.5,491.5C 130.827,491.334 122.16,491.5 113.5,492C 138.003,492.168 162.337,492.668 186.5,493.5C 171.833,493.5 157.167,493.5 142.5,493.5C 121.489,493.66 100.489,493.326 79.5,492.5C 79.5,492.167 79.5,491.833 79.5,491.5C 86.3543,491.824 93.021,491.491 99.5,490.5 Z"/></g>
<g><path style="opacity:0.727" fill="#8f8f8f" d="M 139.5,491.5 C 139.5,491.167 139.5,490.833 139.5,490.5C 182.833,490.5 226.167,490.5 269.5,490.5C 280.833,490.5 292.167,490.5 303.5,490.5C 320.659,491.497 337.992,491.83 355.5,491.5C 328.676,492.782 301.676,493.448 274.5,493.5C 281.321,492.671 288.321,492.171 295.5,492C 243.501,491.5 191.501,491.333 139.5,491.5 Z"/></g>
<g><path style="opacity:0.004" fill="#fefffe" d="M 33.5,491.5 C 34.8333,492.167 34.8333,492.167 33.5,491.5 Z"/></g>
<g><path style="opacity:0.09" fill="#c6c6c6" d="M 36.5,490.5 C 50.8267,491.064 65.1601,491.397 79.5,491.5C 79.5,491.833 79.5,492.167 79.5,492.5C 64.9683,492.766 50.6349,492.099 36.5,490.5 Z"/></g>
<g><path style="opacity:0.979" fill="#1b1b1b" d="M 139.5,491.5 C 191.501,491.333 243.501,491.5 295.5,492C 288.321,492.171 281.321,492.671 274.5,493.5C 271.167,493.5 267.833,493.5 264.5,493.5C 250.5,493.5 236.5,493.5 222.5,493.5C 222.5,495.167 222.5,496.833 222.5,498.5C 221.539,496.735 221.205,494.735 221.5,492.5C 210.321,492.172 199.321,492.505 188.5,493.5C 188.5,496.167 188.5,498.833 188.5,501.5C 187.668,501.246 187.001,500.246 186.5,498.5C 186.5,497.833 186.5,497.167 186.5,496.5C 186.5,495.5 186.5,494.5 186.5,493.5C 162.337,492.668 138.003,492.168 113.5,492C 122.16,491.5 130.827,491.334 139.5,491.5 Z"/></g>
<g><path style="opacity:0.75" fill="#575757" d="M 188.5,493.5 C 199.321,492.505 210.321,492.172 221.5,492.5C 221.205,494.735 221.539,496.735 222.5,498.5C 222.5,500.167 222.5,501.833 222.5,503.5C 222.813,507.042 222.479,510.375 221.5,513.5C 221.817,509.298 221.483,505.298 220.5,501.5C 220.5,500.5 220.5,499.5 220.5,498.5C 220.5,497.167 220.5,495.833 220.5,494.5C 210.013,493.506 199.346,493.172 188.5,493.5 Z"/></g>
<g><path style="opacity:0.004" fill="#fefffe" d="M 76.5,494.5 C 79.3035,493.362 82.3035,493.195 85.5,494C 82.5184,494.498 79.5184,494.665 76.5,494.5 Z"/></g>
<g><path style="opacity:0.157" fill="#e0e0e0" d="M 142.5,493.5 C 157.167,493.5 171.833,493.5 186.5,493.5C 186.5,494.5 186.5,495.5 186.5,496.5C 171.9,494.867 157.233,493.867 142.5,493.5 Z"/></g>
<g><path style="opacity:0.071" fill="#eaeaea" d="M 188.5,493.5 C 199.346,493.172 210.013,493.506 220.5,494.5C 210.167,494.5 199.833,494.5 189.5,494.5C 189.5,496.833 189.5,499.167 189.5,501.5C 189.167,501.5 188.833,501.5 188.5,501.5C 188.5,498.833 188.5,496.167 188.5,493.5 Z"/></g>
<g><path style="opacity:0.125" fill="#dcdcdc" d="M 264.5,493.5 C 251.34,494.331 238.006,494.831 224.5,495C 223.872,497.939 223.205,500.772 222.5,503.5C 222.5,501.833 222.5,500.167 222.5,498.5C 222.5,496.833 222.5,495.167 222.5,493.5C 236.5,493.5 250.5,493.5 264.5,493.5 Z"/></g>
<g><path style="opacity:0.006" fill="#fefffe" d="M 217.5,501.5 C 218.152,502.449 218.486,503.615 218.5,505C 217.959,508.828 217.459,512.661 217,516.5C 216.502,511.481 216.668,506.481 217.5,501.5 Z"/></g>
<g><path style="opacity:0.533" fill="#adadad" d="M 186.5,498.5 C 187.001,500.246 187.668,501.246 188.5,501.5C 188.833,501.5 189.167,501.5 189.5,501.5C 190.468,503.607 190.802,505.941 190.5,508.5C 189.698,507.048 189.198,505.382 189,503.5C 188.833,505.167 188.667,506.833 188.5,508.5C 189.34,517.147 189.674,525.813 189.5,534.5C 188.225,522.671 187.225,510.671 186.5,498.5 Z"/></g>
<g><path style="opacity:0.004" fill="#fefffe" d="M 185.5,506.5 C 186.573,507.251 186.74,508.251 186,509.5C 185.517,508.552 185.351,507.552 185.5,506.5 Z"/></g>
<g><path style="opacity:0.682" fill="#8e8e8e" d="M 220.5,498.5 C 220.5,499.5 220.5,500.5 220.5,501.5C 220.612,507.726 219.946,513.726 218.5,519.5C 218.5,518.833 218.5,518.167 218.5,517.5C 218.697,510.974 219.364,504.641 220.5,498.5 Z"/></g>
<g><path style="opacity:0.004" fill="#fefffe" d="M 222.5,520.5 C 223.598,521.601 223.765,522.934 223,524.5C 222.51,523.207 222.343,521.873 222.5,520.5 Z"/></g>
<g><path style="opacity:1" fill="#3f3f3f" d="M 190.5,508.5 C 191.767,516.638 192.434,524.971 192.5,533.5C 192.705,539.878 192.372,546.211 191.5,552.5C 191.5,553.167 191.167,553.5 190.5,553.5C 189.577,554.303 188.577,554.47 187.5,554C 189.155,552.556 189.822,550.722 189.5,548.5C 189.5,543.833 189.5,539.167 189.5,534.5C 189.674,525.813 189.34,517.147 188.5,508.5C 188.667,506.833 188.833,505.167 189,503.5C 189.198,505.382 189.698,507.048 190.5,508.5 Z"/></g>
<g><path style="opacity:0.234" fill="#cecece" d="M 218.5,517.5 C 218.5,518.167 218.5,518.833 218.5,519.5C 217.364,530.228 217.364,540.894 218.5,551.5C 218.5,551.833 218.5,552.167 218.5,552.5C 217.883,552.389 217.383,552.056 217,551.5C 216.081,539.952 216.581,528.619 218.5,517.5 Z"/></g>
<g><path style="opacity:0.987" fill="#121212" d="M 220.5,501.5 C 221.483,505.298 221.817,509.298 221.5,513.5C 220.223,526.148 219.223,538.815 218.5,551.5C 217.364,540.894 217.364,530.228 218.5,519.5C 219.946,513.726 220.612,507.726 220.5,501.5 Z"/></g>
<g><path style="opacity:0.384" fill="#aeaeae" d="M 192.5,533.5 C 193.23,537.031 193.896,540.697 194.5,544.5C 193.991,547.462 192.991,550.129 191.5,552.5C 192.372,546.211 192.705,539.878 192.5,533.5 Z"/></g>
<g><path style="opacity:0.125" fill="#c6c6c6" d="M 221.5,552.5 C 223.027,552.427 224.027,553.094 224.5,554.5C 222.973,554.573 221.973,553.906 221.5,552.5 Z"/></g>
<g><path style="opacity:0.975" fill="#7b7b7b" d="M 221.5,513.5 C 221.5,526.5 221.5,539.5 221.5,552.5C 221.973,553.906 222.973,554.573 224.5,554.5C 228.842,556.387 233.175,558.054 237.5,559.5C 236.127,559.343 234.793,559.51 233.5,560C 235.066,560.608 236.4,561.442 237.5,562.5C 231.858,561.589 226.525,559.756 221.5,557C 219.859,555.871 218.859,554.371 218.5,552.5C 218.5,552.167 218.5,551.833 218.5,551.5C 219.223,538.815 220.223,526.148 221.5,513.5 Z"/></g>
<g><path style="opacity:0.98" fill="#686868" d="M 189.5,548.5 C 189.822,550.722 189.155,552.556 187.5,554C 188.577,554.47 189.577,554.303 190.5,553.5C 188.609,557.041 185.609,559.041 181.5,559.5C 181.027,558.094 180.027,557.427 178.5,557.5C 183.573,556.141 187.24,553.141 189.5,548.5 Z"/></g>
<g><path style="opacity:0.78" fill="#909090" d="M 178.5,557.5 C 176.162,559.04 173.495,559.706 170.5,559.5C 172.905,558.232 175.572,557.565 178.5,557.5 Z"/></g>
<g><path style="opacity:0.005" fill="#efefef" d="M 178.5,560.5 C 179.209,559.596 180.209,559.263 181.5,559.5C 182.463,560.363 182.463,561.03 181.5,561.5C 180.583,560.873 179.583,560.539 178.5,560.5 Z"/></g>
<g><path style="opacity:0.071" fill="#bcbcbc" d="M 237.5,559.5 C 240.428,559.565 243.095,560.232 245.5,561.5C 242.505,561.706 239.838,561.04 237.5,559.5 Z"/></g>
<g><path style="opacity:0.592" fill="#969696" d="M 170.5,559.5 C 167.495,561.277 164.162,562.277 160.5,562.5C 163.505,560.723 166.838,559.723 170.5,559.5 Z"/></g>
<g><path style="opacity:0.039" fill="#cecece" d="M 177.5,560.5 C 175.723,561.6 173.723,562.434 171.5,563C 172.696,563.654 172.696,564.154 171.5,564.5C 170.264,563.754 168.93,563.421 167.5,563.5C 170.505,561.723 173.838,560.723 177.5,560.5 Z"/></g>
<g><path style="opacity:0.961" fill="#272727" d="M 178.5,557.5 C 180.027,557.427 181.027,558.094 181.5,559.5C 180.209,559.263 179.209,559.596 178.5,560.5C 178.167,560.5 177.833,560.5 177.5,560.5C 173.838,560.723 170.505,561.723 167.5,563.5C 166.833,563.5 166.5,563.833 166.5,564.5C 165.5,564.5 164.5,564.5 163.5,564.5C 159.838,564.723 156.505,565.723 153.5,567.5C 153.167,567.5 152.833,567.5 152.5,567.5C 151.127,567.657 149.793,567.49 148.5,567C 152.343,565.639 156.009,564.139 159.5,562.5C 159.833,562.5 160.167,562.5 160.5,562.5C 164.162,562.277 167.495,561.277 170.5,559.5C 173.495,559.706 176.162,559.04 178.5,557.5 Z"/></g>
<g><path style="opacity:0.012" fill="#cecece" d="M 249.5,562.5 C 252.152,562.41 254.485,563.076 256.5,564.5C 253.848,564.59 251.515,563.924 249.5,562.5 Z"/></g>
<g><path style="opacity:0.792" fill="#8d8d8d" d="M 242.5,564.5 C 242.5,564.167 242.5,563.833 242.5,563.5C 245.916,563.528 248.916,564.528 251.5,566.5C 249.5,566.167 247.5,565.833 245.5,565.5C 244.791,564.596 243.791,564.263 242.5,564.5 Z"/></g>
<g><path style="opacity:0.985" fill="#272727" d="M 237.5,559.5 C 239.838,561.04 242.505,561.706 245.5,561.5C 246.959,561.433 248.292,561.766 249.5,562.5C 251.515,563.924 253.848,564.59 256.5,564.5C 256.833,564.5 257.167,564.5 257.5,564.5C 258.99,566.28 260.99,566.946 263.5,566.5C 264.914,568.598 264.248,569.598 261.5,569.5C 258.619,567.32 255.286,566.32 251.5,566.5C 248.916,564.528 245.916,563.528 242.5,563.5C 240.585,563.784 238.919,563.451 237.5,562.5C 236.4,561.442 235.066,560.608 233.5,560C 234.793,559.51 236.127,559.343 237.5,559.5 Z"/></g>
<g><path style="opacity:0.008" fill="#fefffe" d="M 166.5,564.5 C 169.598,564.413 169.932,564.913 167.5,566C 165.934,566.765 164.601,566.598 163.5,565.5C 164.791,565.737 165.791,565.404 166.5,564.5 Z"/></g>
<g><path style="opacity:0.007" fill="#fefffe" d="M 242.5,564.5 C 243.209,565.404 244.209,565.737 245.5,565.5C 243.565,566.709 241.565,566.542 239.5,565C 240.448,564.517 241.448,564.351 242.5,564.5 Z"/></g>
<g><path style="opacity:0.051" fill="#d4d4d4" d="M 163.5,564.5 C 163.5,564.833 163.5,565.167 163.5,565.5C 160.292,565.474 158.292,566.474 157.5,568.5C 156.264,567.754 154.93,567.421 153.5,567.5C 156.505,565.723 159.838,564.723 163.5,564.5 Z"/></g>
<g><path style="opacity:0.769" fill="#888888" d="M 257.5,564.5 C 259.786,564.595 261.786,565.262 263.5,566.5C 260.99,566.946 258.99,566.28 257.5,564.5 Z"/></g>
<g><path style="opacity:0.949" fill="#7a7a7a" d="M 159.5,562.5 C 156.009,564.139 152.343,565.639 148.5,567C 149.793,567.49 151.127,567.657 152.5,567.5C 152.5,567.833 152.5,568.167 152.5,568.5C 151.209,568.263 150.209,568.596 149.5,569.5C 147.784,569.629 146.117,569.962 144.5,570.5C 144.5,569.167 143.833,568.5 142.5,568.5C 147.661,565.334 153.327,563.334 159.5,562.5 Z"/></g>
<g><path style="opacity:0.851" fill="#929292" d="M 251.5,566.5 C 255.286,566.32 258.619,567.32 261.5,569.5C 257.952,568.87 254.619,567.87 251.5,566.5 Z"/></g>
<g><path style="opacity:0.008" fill="#fefffe" d="M 152.5,568.5 C 155.598,568.413 155.932,568.913 153.5,570C 151.934,570.765 150.601,570.598 149.5,569.5C 150.791,569.737 151.791,569.404 152.5,568.5 Z"/></g>
<g><path style="opacity:0.992" fill="#656565" d="M 263.5,566.5 C 267.725,567.722 270.725,570.388 272.5,574.5C 271.788,577.212 270.121,578.879 267.5,579.5C 267.672,578.508 267.338,577.842 266.5,577.5C 266.953,576.542 267.619,575.708 268.5,575C 266.865,572.193 264.531,570.36 261.5,569.5C 264.248,569.598 264.914,568.598 263.5,566.5 Z"/></g>
<g><path style="opacity:0.263" fill="#b0b0b0" d="M 142.5,571.5 C 142.461,572.583 142.127,573.583 141.5,574.5C 142.193,575.518 142.859,576.518 143.5,577.5C 141.516,577.516 140.516,576.516 140.5,574.5C 140.453,572.962 141.12,571.962 142.5,571.5 Z"/></g>
<g><path style="opacity:0.627" fill="#aaaaaa" d="M 141.5,579.5 C 145.761,579.898 149.761,580.898 153.5,582.5C 149.163,582.416 145.163,581.416 141.5,579.5 Z"/></g>
<g><path style="opacity:0.18" fill="#b8b8b8" d="M 267.5,579.5 C 263.874,581.498 259.874,582.498 255.5,582.5C 259.239,580.898 263.239,579.898 267.5,579.5 Z"/></g>
<g><path style="opacity:0.651" fill="#8c8c8c" d="M 154.5,582.5 C 177.449,584.314 200.449,584.981 223.5,584.5C 223.5,584.833 223.5,585.167 223.5,585.5C 204.83,585.667 186.164,585.5 167.5,585C 162.953,584.571 158.619,583.738 154.5,582.5 Z"/></g>
<g><path style="opacity:0.974" fill="#242424" d="M 142.5,568.5 C 143.833,568.5 144.5,569.167 144.5,570.5C 144.158,571.338 143.492,571.672 142.5,571.5C 141.12,571.962 140.453,572.962 140.5,574.5C 140.516,576.516 141.516,577.516 143.5,577.5C 143.833,577.5 144.167,577.5 144.5,577.5C 148.474,579.575 152.808,580.575 157.5,580.5C 159.95,580.298 162.283,580.631 164.5,581.5C 177.802,582.992 191.302,583.658 205,583.5C 213.833,583.333 222.667,583.167 231.5,583C 233.708,582.809 235.708,582.309 237.5,581.5C 239.167,581.5 240.833,581.5 242.5,581.5C 248.503,581.667 254.17,580.667 259.5,578.5C 261.717,577.631 264.05,577.298 266.5,577.5C 267.338,577.842 267.672,578.508 267.5,579.5C 263.239,579.898 259.239,580.898 255.5,582.5C 254.833,582.5 254.167,582.5 253.5,582.5C 243.516,583.387 233.516,584.054 223.5,584.5C 200.449,584.981 177.449,584.314 154.5,582.5C 154.167,582.5 153.833,582.5 153.5,582.5C 149.761,580.898 145.761,579.898 141.5,579.5C 137.419,577.519 136.586,574.519 139,570.5C 139.816,569.177 140.983,568.511 142.5,568.5 Z"/></g>
<g><path style="opacity:0.657" fill="#878787" d="M 164.5,581.5 C 188.833,581.5 213.167,581.5 237.5,581.5C 235.708,582.309 233.708,582.809 231.5,583C 222.667,583.167 213.833,583.333 205,583.5C 191.302,583.658 177.802,582.992 164.5,581.5 Z"/></g>
<g><path style="opacity:0.796" fill="#7d7d7d" d="M 259.5,578.5 C 254.17,580.667 248.503,581.667 242.5,581.5C 247.948,579.98 253.614,578.98 259.5,578.5 Z"/></g>
<g><path style="opacity:0.141" fill="#bfbfbf" d="M 144.5,577.5 C 149.052,578.057 153.385,579.057 157.5,580.5C 152.808,580.575 148.474,579.575 144.5,577.5 Z"/></g>
<g><path style="opacity:0.112" fill="#bababa" d="M 253.5,582.5 C 243.782,584.904 233.782,585.904 223.5,585.5C 223.5,585.167 223.5,584.833 223.5,584.5C 233.516,584.054 243.516,583.387 253.5,582.5 Z"/></g>
</svg>
